<mxfile host="Electron" agent="Mozilla/5.0 (Windows NT 10.0; Win64; x64) AppleWebKit/537.36 (KHTML, like Gecko) draw.io/28.1.2 Chrome/138.0.7204.243 Electron/37.4.0 Safari/537.36" version="28.1.2">
  <diagram name="Page-1" id="yn507euPht28QzgaYiQ1">
    <mxGraphModel dx="1042" dy="834" grid="1" gridSize="10" guides="1" tooltips="1" connect="1" arrows="1" fold="1" page="1" pageScale="1" pageWidth="827" pageHeight="1169" math="0" shadow="0">
      <root>
        <mxCell id="0" />
        <mxCell id="1" parent="0" />
        <mxCell id="hrBbRlhsaCcnHXH5dRRE-1" value="&lt;span&gt;Requirements&lt;/span&gt;" style="rounded=0;whiteSpace=wrap;html=1;fontStyle=0;fontFamily=Lucida Console;fontSize=14;strokeWidth=2;miterlimit=4;shadow=0;sketch=1;curveFitting=1;jiggle=2;" vertex="1" parent="1">
          <mxGeometry x="40" y="40" width="140" height="40" as="geometry" />
        </mxCell>
        <mxCell id="hrBbRlhsaCcnHXH5dRRE-2" value="&lt;span&gt;Analysis&lt;/span&gt;" style="rounded=0;whiteSpace=wrap;html=1;fontStyle=0;fontFamily=Lucida Console;fontSize=14;strokeWidth=2;sketch=1;curveFitting=1;jiggle=2;" vertex="1" parent="1">
          <mxGeometry x="120" y="100" width="140" height="40" as="geometry" />
        </mxCell>
        <mxCell id="hrBbRlhsaCcnHXH5dRRE-4" value="&lt;span&gt;Design&lt;/span&gt;" style="rounded=0;whiteSpace=wrap;html=1;fontStyle=0;fontFamily=Lucida Console;fontSize=14;strokeWidth=2;sketch=1;curveFitting=1;jiggle=2;" vertex="1" parent="1">
          <mxGeometry x="200" y="160" width="140" height="40" as="geometry" />
        </mxCell>
        <mxCell id="hrBbRlhsaCcnHXH5dRRE-5" value="&lt;span&gt;Coding&lt;/span&gt;" style="rounded=0;whiteSpace=wrap;html=1;fontStyle=0;fontFamily=Lucida Console;fontSize=14;strokeWidth=2;sketch=1;curveFitting=1;jiggle=2;" vertex="1" parent="1">
          <mxGeometry x="280" y="220" width="140" height="40" as="geometry" />
        </mxCell>
        <mxCell id="hrBbRlhsaCcnHXH5dRRE-6" value="&lt;span&gt;Testing&lt;/span&gt;" style="rounded=0;whiteSpace=wrap;html=1;fontStyle=0;fontFamily=Lucida Console;fontSize=14;strokeWidth=2;sketch=1;curveFitting=1;jiggle=2;" vertex="1" parent="1">
          <mxGeometry x="360" y="280" width="140" height="40" as="geometry" />
        </mxCell>
        <mxCell id="hrBbRlhsaCcnHXH5dRRE-7" value="&lt;span&gt;Release&lt;/span&gt;" style="rounded=0;whiteSpace=wrap;html=1;fontStyle=0;fontFamily=Lucida Console;fontSize=14;strokeWidth=2;sketch=1;curveFitting=1;jiggle=2;" vertex="1" parent="1">
          <mxGeometry x="440" y="340" width="140" height="40" as="geometry" />
        </mxCell>
        <mxCell id="hrBbRlhsaCcnHXH5dRRE-8" value="&lt;span&gt;Operation&lt;/span&gt;" style="rounded=0;whiteSpace=wrap;html=1;fontStyle=0;fontFamily=Lucida Console;fontSize=14;strokeWidth=2;sketch=1;curveFitting=1;jiggle=2;" vertex="1" parent="1">
          <mxGeometry x="520" y="400" width="140" height="40" as="geometry" />
        </mxCell>
        <mxCell id="hrBbRlhsaCcnHXH5dRRE-18" value="" style="curved=1;endArrow=block;html=1;rounded=0;exitX=1;exitY=0.5;exitDx=0;exitDy=0;strokeWidth=4;endFill=1;entryX=0.643;entryY=0;entryDx=0;entryDy=0;entryPerimeter=0;sketch=1;curveFitting=1;jiggle=2;" edge="1" parent="1" source="hrBbRlhsaCcnHXH5dRRE-1" target="hrBbRlhsaCcnHXH5dRRE-2">
          <mxGeometry width="50" height="50" relative="1" as="geometry">
            <mxPoint x="330" y="100" as="sourcePoint" />
            <mxPoint x="380" y="50" as="targetPoint" />
            <Array as="points">
              <mxPoint x="200" y="60" />
            </Array>
          </mxGeometry>
        </mxCell>
        <mxCell id="hrBbRlhsaCcnHXH5dRRE-19" value="" style="curved=1;endArrow=block;html=1;rounded=0;exitX=1;exitY=0.5;exitDx=0;exitDy=0;strokeWidth=4;endFill=1;entryX=0.643;entryY=0;entryDx=0;entryDy=0;entryPerimeter=0;sketch=1;curveFitting=1;jiggle=2;" edge="1" parent="1">
          <mxGeometry width="50" height="50" relative="1" as="geometry">
            <mxPoint x="260" y="120" as="sourcePoint" />
            <mxPoint x="290" y="160" as="targetPoint" />
            <Array as="points">
              <mxPoint x="280" y="120" />
            </Array>
          </mxGeometry>
        </mxCell>
        <mxCell id="hrBbRlhsaCcnHXH5dRRE-20" value="" style="curved=1;endArrow=block;html=1;rounded=0;exitX=1;exitY=0.5;exitDx=0;exitDy=0;strokeWidth=4;endFill=1;entryX=0.643;entryY=0;entryDx=0;entryDy=0;entryPerimeter=0;sketch=1;curveFitting=1;jiggle=2;" edge="1" parent="1">
          <mxGeometry width="50" height="50" relative="1" as="geometry">
            <mxPoint x="340" y="180" as="sourcePoint" />
            <mxPoint x="370" y="220" as="targetPoint" />
            <Array as="points">
              <mxPoint x="360" y="180" />
            </Array>
          </mxGeometry>
        </mxCell>
        <mxCell id="hrBbRlhsaCcnHXH5dRRE-21" value="" style="curved=1;endArrow=block;html=1;rounded=0;exitX=1;exitY=0.5;exitDx=0;exitDy=0;strokeWidth=4;endFill=1;entryX=0.643;entryY=0;entryDx=0;entryDy=0;entryPerimeter=0;sketch=1;curveFitting=1;jiggle=2;" edge="1" parent="1">
          <mxGeometry width="50" height="50" relative="1" as="geometry">
            <mxPoint x="420" y="240" as="sourcePoint" />
            <mxPoint x="450" y="280" as="targetPoint" />
            <Array as="points">
              <mxPoint x="440" y="240" />
            </Array>
          </mxGeometry>
        </mxCell>
        <mxCell id="hrBbRlhsaCcnHXH5dRRE-22" value="" style="curved=1;endArrow=block;html=1;rounded=0;exitX=1;exitY=0.5;exitDx=0;exitDy=0;strokeWidth=4;endFill=1;entryX=0.643;entryY=0;entryDx=0;entryDy=0;entryPerimeter=0;sketch=1;curveFitting=1;jiggle=2;" edge="1" parent="1">
          <mxGeometry width="50" height="50" relative="1" as="geometry">
            <mxPoint x="500" y="300" as="sourcePoint" />
            <mxPoint x="530" y="340" as="targetPoint" />
            <Array as="points">
              <mxPoint x="520" y="300" />
            </Array>
          </mxGeometry>
        </mxCell>
        <mxCell id="hrBbRlhsaCcnHXH5dRRE-23" value="" style="curved=1;endArrow=block;html=1;rounded=0;exitX=1;exitY=0.5;exitDx=0;exitDy=0;strokeWidth=4;endFill=1;entryX=0.643;entryY=0;entryDx=0;entryDy=0;entryPerimeter=0;sketch=1;curveFitting=1;jiggle=2;" edge="1" parent="1">
          <mxGeometry width="50" height="50" relative="1" as="geometry">
            <mxPoint x="580" y="360" as="sourcePoint" />
            <mxPoint x="610" y="400" as="targetPoint" />
            <Array as="points">
              <mxPoint x="600" y="360" />
            </Array>
          </mxGeometry>
        </mxCell>
      </root>
    </mxGraphModel>
  </diagram>
</mxfile>
